<?xml version="1.0" encoding="UTF-8"?>
<svg id="Layer_2" data-name="Layer 2" xmlns="http://www.w3.org/2000/svg" xmlns:xlink="http://www.w3.org/1999/xlink" viewBox="0 0 538.67 133.06">
  <defs>
    <style>
      .cls-1 {
        fill: url(#linear-gradient);
        stroke-width: 0px;
      }
    </style>
    <linearGradient id="linear-gradient" x1="0" y1="66.53" x2="538.67" y2="66.53" gradientUnits="userSpaceOnUse">
      <stop offset="0" stop-color="#0077e9"/>
      <stop offset=".21" stop-color="#00b8e9"/>
      <stop offset=".4" stop-color="#ffc515"/>
      <stop offset=".6" stop-color="#d43b00"/>
      <stop offset=".76" stop-color="#e200a2"/>
      <stop offset="1" stop-color="#720094"/>
    </linearGradient>
  </defs>
  <g id="Layer_1-2" data-name="Layer 1">
    <path class="cls-1" d="m0,124.52c2.77-2.93,6.02-8.01,9.76-15.25,3.74-7.24,6.94-13.51,9.6-18.83,2.66-5.31,5.44-10.76,8.34-16.35,2.9-5.59,5.88-11.13,8.95-16.63,3.06-5.5,6.17-10.7,9.31-15.58,6.99-10.74,13.39-18.27,19.19-22.61.65-.54,1.37-.81,2.15-.81s1.59.13,2.4.41c1.79.6,3.36,1.52,4.72,2.76-6.78,5.42-13.77,19.66-20.98,42.7-2.06,6.45-4.07,12.89-6.02,19.32-1.95,6.43-3.84,12.62-5.65,18.59-1.82,5.96-3.62,11.22-5.41,15.78-3.85,10.03-7.29,15.05-10.33,15.05-9.6,0-17.11-1.95-22.53-5.86-1.36-.98-2.52-1.87-3.5-2.68ZM30.42,48.23c-4.93,5.26-8.87,7.89-11.79,7.89-3.25,0-6.15-2.09-8.7-6.26-2.49-4.12-3.74-8.49-3.74-13.09s1.1-8.63,3.29-12.08,5.11-6.49,8.74-9.15c3.63-2.66,7.79-4.96,12.49-6.91,4.69-1.95,9.56-3.55,14.6-4.8,9.98-2.55,18.37-3.82,25.17-3.82s12.51.28,17.12.85c4.61.57,9.06,1.51,13.34,2.81,4.28,1.3,8.32,2.97,12.12,5,3.79,2.03,7.13,4.49,10,7.36,6.07,6.24,9.11,14.02,9.11,23.34s-3.04,19.55-9.11,29.69c-5.86,9.81-13.45,17.95-22.77,24.4-9.92,6.78-19.93,10.17-30.01,10.17-4.94,0-9.27-1.22-13.01-3.66-1.79-1.25-2.71-2.7-2.77-4.35-.05-1.65-.03-3.16.08-4.51.43-5.59,1.65-12.15,3.66-19.68,3.96,1.63,8.19,2.44,12.69,2.44s8.24-.47,11.22-1.42c2.98-.95,5.98-2.29,8.99-4.03,3.01-1.74,5.91-3.8,8.7-6.18,2.79-2.39,5.27-5.04,7.44-7.97,4.72-6.4,7.08-12.47,7.08-18.22s-1.32-10.29-3.94-13.62c-2.63-3.34-6.01-6-10.13-8.01-7.75-3.85-17.32-5.77-28.71-5.77-9.81,0-19.85,1.98-30.09,5.94-7.16,2.82-12.31,6.4-15.45,10.74-1.63,2.28-2.44,4.77-2.44,7.48,0,6.13,2.28,11.28,6.83,15.45Zm93.53,72.22c-1.14-2.44-1.71-5.44-1.71-8.99s.77-7.31,2.32-11.26c1.55-3.96,3.52-7.9,5.94-11.83,2.41-3.93,5.11-7.73,8.09-11.39s5.94-6.9,8.87-9.72c6.45-6.13,11.2-9.19,14.23-9.19,1.3,0,2.75.56,4.35,1.67,1.6,1.11,2.62,1.94,3.05,2.48-8.19,8.78-13.37,17.27-15.53,25.46-.71,2.49-1.06,4.92-1.06,7.28s.89,4.47,2.68,6.34c1.79,1.87,4.01,2.81,6.67,2.81s5.14-.5,7.44-1.5,4.57-2.32,6.79-3.94c4.39-3.31,8.24-7.43,11.55-12.36,2.44-.16,3.66.84,3.66,3.01,0,1.79-1.13,4.61-3.38,8.46-2.25,3.85-4.49,7.17-6.71,9.96-2.22,2.79-4.76,5.54-7.6,8.25-2.85,2.71-5.95,5.12-9.31,7.24-7.54,4.77-15.29,7.16-23.26,7.16-8.41,0-14.1-3.31-17.08-9.92Zm62.63-80.32c-2.22,1.11-4.62,1.95-7.2,2.52-2.58.57-4.81.85-6.71.85s-3.61-.23-5.12-.69c-1.52-.46-2.88-1.12-4.07-1.99-2.6-1.9-3.9-4.17-3.9-6.83s.47-4.91,1.42-6.75c.95-1.84,2.32-3.42,4.11-4.72,3.85-2.82,8.47-4.23,13.87-4.23s9.33,1.11,11.79,3.33c2.47,2.22,3.7,4.77,3.7,7.65s-.76,5.12-2.28,6.75c-1.52,1.63-3.39,3-5.61,4.11Zm51.89,49.08c5.75,9.92,11.9,14.88,18.46,14.88,7.16,0,14.5-3.5,22.04-10.49,2.33-2.17,4.39-4.61,6.18-7.32,2.44-.16,3.66.84,3.66,3.01,0,2.39-1.37,5.75-4.11,10.09-2.74,4.34-5.29,7.9-7.65,10.7-2.36,2.79-4.93,5.4-7.73,7.81-2.79,2.41-5.71,4.51-8.74,6.3-6.67,3.8-13.18,5.69-19.52,5.69-7.05,0-12.04-4.12-14.97-12.36-.87-2.49-1.63-5.26-2.28-8.3-5.04,6.67-9.11,11.22-12.2,13.66-5.8,4.61-11.25,6.91-16.35,6.91-5.85,0-10.3-1.98-13.34-5.94-2.6-3.36-3.9-7.32-3.9-11.87s.35-8.4,1.06-11.55c.7-3.14,1.55-5.86,2.52-8.13,2.77-6.51,5.91-10.52,9.43-12.04,1.52-.7,3.23-1.17,5.12-1.38-.05,1.03-.08,2.26-.08,3.7s.12,3.38.37,5.81c.24,2.44.69,4.85,1.34,7.24,1.57,5.42,3.61,8.13,6.1,8.13,2.11,0,4.6-1.13,7.44-3.38,2.85-2.25,5.98-5.11,9.39-8.58-.92-5.42-2.01-10.89-3.25-16.39-1.25-5.5-3.09-10.8-5.53-15.9,2.93-1.3,5.94-1.95,9.03-1.95,2.11,0,5.02,4.39,8.7,13.18,1.03,2.55,2.17,5.18,3.42,7.89,7.1-7.54,12.36-12.63,15.78-15.29,7.21-5.75,12.93-8.62,17.16-8.62h.41c2.87.49,4.82,2.82,5.86,7,.87,3.74.92,6.83.16,9.27-.38,1.57-2.28,3.06-5.69,4.47-6.56,2.71-13.39,4.12-20.5,4.23-2.44,2.71-5.04,5.88-7.81,9.52Zm62.46,41.07l-1.63.08c-8.57,0-15.1-2.11-19.6-6.34-4.23-3.96-6.34-9.33-6.34-16.1,0-9.33,3.71-18.25,11.14-26.76,7.21-8.24,15.97-14.02,26.27-17.32-.33-2.44.57-4.45,2.68-6.02,1.52-1.14,4.03-1.71,7.52-1.71s6.87.33,10.13.98c3.25.65,6.53,2.09,9.84,4.31,7.16,4.72,10.74,11.06,10.74,19.03,0,8.62-2.14,16.81-6.43,24.56,9.33-2.01,17.49-8.24,24.48-18.71,2.44-.16,3.66.84,3.66,3.01,0,.87-.27,1.92-.81,3.17-7.37,17.52-22.12,29.12-44.25,34.81-7.92,2.06-16.92,3.09-27,3.09l-.41-.08Zm-1.38-35.62c0,6.29,2.63,9.43,7.89,9.43,4.45,0,8.92-2.68,13.42-8.05,4.72-5.58,7.08-11.25,7.08-17s-2.82-9.73-8.46-11.63c-9.71,2.71-15.92,8.78-18.63,18.22-.87,2.87-1.3,5.88-1.3,9.03Zm98.82-13.58c-6.51-.32-12.04-1-16.59-2.03-5.59,9.71-11.06,18.36-16.43,25.95-.7,1.14-2.3,1.44-4.8.9-4.45-.98-7-2.11-7.65-3.42,9.65-6.78,16.43-15.48,20.33-26.11-5.69-2.6-8.54-6.29-8.54-11.06,0-2.93,1.92-6.67,5.77-11.22,3.63-4.45,6.32-6.67,8.05-6.67,5.31,0,9.35,1.36,12.12,4.07,1.08,1.03,1.63,2.4,1.63,4.11s-.92,4.57-2.77,8.58c8.35,4.07,18.87,6.45,31.56,7.16-.38,3.74-1.95,6.78-4.72,9.11-.76.71-1.52,1.06-2.28,1.06-3.85,3.47-6.56,7.24-8.13,11.3-.49,1.3-.73,2.55-.73,3.74,0,5.04,3.01,7.56,9.03,7.56,4.07,0,8.57-1.82,13.5-5.45,4.39-3.31,8.24-7.43,11.55-12.36,2.44-.16,3.66.84,3.66,3.01,0,1.84-1.13,4.66-3.38,8.46-2.25,3.8-4.43,7.08-6.55,9.84-2.11,2.77-4.47,5.48-7.08,8.13-2.6,2.66-5.37,5.04-8.3,7.16-6.56,4.66-12.99,6.99-19.28,6.99-10.68,0-17.84-3.31-21.47-9.92-1.25-2.22-1.87-4.81-1.87-7.77s.61-5.87,1.83-8.74c1.22-2.87,2.89-5.67,5-8.38,4.34-5.64,9.84-10.3,16.51-13.99Zm78.57,35.79c-7.43,8.68-16.48,13.01-27.17,13.01-6.78,0-12.2-2.03-16.27-6.1-4.01-4.01-6.02-9.3-6.02-15.86,0-8.3,3.25-16.35,9.76-24.16,6.29-7.59,14.53-13.77,24.73-18.54,10.57-4.93,21.5-7.4,32.78-7.4,4.28,0,7.35.68,9.19,2.03,1.46-1.73,2.78-2.75,3.94-3.05,1.17-.3,2.07-.45,2.73-.45,2.06,0,4.26.3,6.59.89-.22.7-.68,1.91-1.38,3.62-.71,1.71-1.49,3.73-2.36,6.06-.87,2.33-1.79,4.88-2.76,7.64-3.53,9.87-5.29,17.26-5.29,22.16s1.55,7.36,4.64,7.36c4.01,0,8.49-1.82,13.42-5.45,4.39-3.31,8.24-7.43,11.55-12.36,2.44-.16,3.66.84,3.66,3.01,0,1.84-1.13,4.66-3.38,8.46-2.25,3.8-4.43,7.08-6.55,9.84s-4.47,5.48-7.08,8.13c-2.6,2.66-5.37,5.04-8.3,7.16-6.56,4.66-12.96,6.99-19.19,6.99-7.92,0-13.23-2.39-15.94-7.16-.87-1.46-1.3-2.75-1.3-3.86v-1.99Zm-23.26-22.2c0,6.29,2.63,9.43,7.89,9.43,5.8,0,12.63-4.69,20.5-14.07,4.17-4.99,7.82-9.76,10.94-14.31,3.12-4.55,5.49-8.02,7.12-10.41-13.56.11-24.81,3.2-33.75,9.27-8.46,5.75-12.69,12.44-12.69,20.09Z"/>
  </g>
</svg>