<?xml version="1.0" encoding="UTF-8"?>
<svg id="Layer_2" data-name="Layer 2" xmlns="http://www.w3.org/2000/svg" viewBox="0 0 664.57 161.52">
  <defs>
    <style>
      .cls-1 {
        fill: #fcb833;
        stroke-width: 0px;
      }
    </style>
  </defs>
  <g id="Layer_1-2" data-name="Layer 1">
    <g>
      <path class="cls-1" d="m64.18,12.45C28.74,12.45,0,41.19,0,76.63s28.74,64.18,64.18,64.18c13.08,0,25.26-3.91,35.4-10.64l-9.23-8.88-17.83-17.12,7.65-7.65c1.45-1.15,2.77-2.47,3.92-3.92,1.96-2.42,3.48-5.2,4.43-8.24.79-2.44,1.2-5.04,1.2-7.74,0-14.11-11.43-25.54-25.54-25.54s-25.54,11.43-25.54,25.54c0,7.09,2.88,13.51,7.56,18.14l-18.01,19.08c-9.73-9.41-15.78-22.61-15.78-37.21,0-28.59,23.17-51.76,51.76-51.76s51.76,23.17,51.76,51.76c0,9.84-2.75,19.03-7.51,26.86l9.14,8.76c6.82-10.2,10.79-22.44,10.79-35.62,0-35.45-28.74-64.18-64.18-64.18Z"/>
      <circle class="cls-1" cx="129.06" cy="141.5" r="20.01"/>
      <g>
        <path class="cls-1" d="m229.02,35.36v78.09h-27.42v-11.14c-2.32,3.53-5.52,6.38-9.6,8.56-4.08,2.18-8.77,3.27-14.06,3.27-9.1,0-16.26-2.99-21.51-8.98-5.24-5.99-7.86-14.13-7.86-24.43v-45.38h27.14v41.9c0,4.45,1.18,7.96,3.55,10.51,2.37,2.55,5.5,3.83,9.4,3.83s7.14-1.27,9.47-3.83c2.32-2.55,3.48-6.06,3.48-10.51v-41.9h27.42Z"/>
        <path class="cls-1" d="m246.77,24.15c-2.92-2.64-4.38-5.96-4.38-9.95s1.46-7.47,4.38-10.16c2.92-2.69,6.8-4.04,11.62-4.04s8.56,1.35,11.48,4.04c2.92,2.69,4.38,6.08,4.38,10.16s-1.46,7.31-4.38,9.95c-2.92,2.65-6.75,3.97-11.48,3.97s-8.7-1.32-11.62-3.97Zm25.13,11.21v78.09h-27.28V35.36h27.28Z"/>
        <path class="cls-1" d="m313.37,90.76h33.27v22.69h-63.34v-21.58l31.04-33.83h-30.76v-22.69h61.94v21.58l-32.15,33.83Z"/>
        <path class="cls-1" d="m383.94,90.76h33.27v22.69h-63.34v-21.58l31.04-33.83h-30.76v-22.69h61.94v21.58l-32.15,33.83Z"/>
        <path class="cls-1" d="m428.56,53.17c2.92-6.03,6.91-10.67,11.97-13.92,5.06-3.25,10.69-4.87,16.91-4.87,5.38,0,10.02,1.07,13.92,3.2,3.9,2.14,6.91,5.01,9.05,8.63v-10.86h27.28v78.09h-27.28v-10.86c-2.14,3.62-5.17,6.5-9.12,8.63-3.95,2.14-8.56,3.2-13.85,3.2-6.22,0-11.86-1.62-16.91-4.87-5.06-3.25-9.05-7.91-11.97-13.99-2.92-6.08-4.38-13.15-4.38-21.23s1.46-15.12,4.38-21.16Zm47.75,9.33c-2.74-2.88-6.1-4.31-10.09-4.31s-7.47,1.42-10.16,4.25c-2.69,2.83-4.04,6.8-4.04,11.9s1.34,8.98,4.04,11.9c2.69,2.92,6.08,4.38,10.16,4.38s7.35-1.44,10.09-4.32c2.74-2.88,4.11-6.87,4.11-11.97s-1.37-8.95-4.11-11.83Z"/>
        <path class="cls-1" d="m561.7,38.56c4.36-2.6,9.05-3.9,14.06-3.9v29.09h-7.66c-5.94,0-10.35,1.16-13.22,3.48-2.88,2.32-4.32,6.36-4.32,12.11v34.1h-27.28V35.36h27.28v13.78c3.06-4.45,6.77-7.98,11.14-10.58Z"/>
        <path class="cls-1" d="m585.43,53.17c2.92-6.03,6.91-10.67,11.97-13.92,5.06-3.25,10.69-4.87,16.91-4.87,5.38,0,10.02,1.07,13.92,3.2,3.9,2.14,6.91,5.01,9.05,8.63v-10.86h27.28v78.09h-27.28v-10.86c-2.14,3.62-5.17,6.5-9.12,8.63-3.95,2.14-8.56,3.2-13.85,3.2-6.22,0-11.86-1.62-16.91-4.87-5.06-3.25-9.05-7.91-11.97-13.99-2.92-6.08-4.38-13.15-4.38-21.23s1.46-15.12,4.38-21.16Zm47.75,9.33c-2.74-2.88-6.1-4.31-10.09-4.31s-7.47,1.42-10.16,4.25c-2.69,2.83-4.04,6.8-4.04,11.9s1.34,8.98,4.04,11.9c2.69,2.92,6.08,4.38,10.16,4.38s7.35-1.44,10.09-4.32c2.74-2.88,4.11-6.87,4.11-11.97s-1.37-8.95-4.11-11.83Z"/>
      </g>
    </g>
  </g>
</svg>