<?xml version="1.0" encoding="UTF-8"?>
<svg id="Layer_2" data-name="Layer 2" xmlns="http://www.w3.org/2000/svg" viewBox="0 0 654.13 84.73">
  <defs>
    <style>
      .cls-1 {
        fill: #fff200;
      }

      .cls-1, .cls-2 {
        stroke-width: 0px;
      }

      .cls-2 {
        fill: #fff;
      }
    </style>
  </defs>
  <g id="Layer_1-2" data-name="Layer 1">
    <g>
      <path class="cls-2" d="m105.93,84.73h-29.96l-21.18-21.18H21.18v21.18H0v-42.37h79.85c1.83,0,3.53-.61,4.89-1.63v-17.93c-1.36-1.02-3.05-1.63-4.89-1.63H0V0h78.47c2.16,0,4.25.25,6.27.72.95.22,1.88.49,2.79.81.91.32,1.79.68,2.66,1.09.58.27,1.14.56,1.69.87.83.46,1.63.97,2.4,1.52.51.36,1.01.74,1.5,1.14,3.42,2.78,6.15,6.36,7.92,10.46.25.59.48,1.18.69,1.79.32.91.59,1.84.81,2.79.47,2.01.72,4.11.72,6.26v14.93c0,5.85-2.37,11.14-6.2,14.97-3.83,3.83-9.12,6.2-14.97,6.2l21.18,21.18Z"/>
      <path class="cls-2" d="m212.89,84.73h-22.93l-13.21-31.83-8.79-21.18-4.37-10.54h-7.27l-4.37,10.54-8.79,21.18-13.21,31.83h-22.94l13.21-31.83,8.79-21.18,4.37-10.54L142.17,0h35.56l8.79,21.18,4.37,10.54,8.79,21.18,13.21,31.83Z"/>
      <path class="cls-1" d="m321.98,8.15v23.63h-21.18v-5.47c0-2.83-2.29-5.12-5.12-5.12h-58.43v10.67h-21.18V0h97.77c4.5,0,8.15,3.65,8.15,8.15Zm0,34.22v42.37h-105.92v-42.37h21.18v21.18h63.55v-13.62l-10.59-7.57h31.78Z"/>
      <path class="cls-1" d="m436.12,0v84.73h-25.65l-59.08-59.08v59.08h-21.18V0h25.49l59.24,59.24V0h21.18Z"/>
      <path class="cls-2" d="m545.03,84.73h-22.93l-13.21-31.83-8.79-21.18-4.37-10.54h-7.27l-4.37,10.54-8.79,21.18-13.21,31.83h-22.94l13.21-31.83,8.79-21.18,4.37-10.54,8.79-21.18h35.56l8.79,21.18,4.37,10.54,8.79,21.18,13.21,31.83Z"/>
      <path class="cls-2" d="m654.13,84.73h-29.96l-21.18-21.18h-33.6v21.18h-21.18v-42.37h79.85c1.83,0,3.53-.61,4.89-1.63v-17.93c-1.36-1.02-3.05-1.63-4.89-1.63h-79.85V0h78.47c2.16,0,4.25.25,6.27.72.95.22,1.88.49,2.79.81.91.32,1.79.68,2.66,1.09.58.27,1.14.56,1.69.87.83.46,1.63.97,2.4,1.52.51.36,1.01.74,1.5,1.14,3.42,2.78,6.15,6.36,7.92,10.46.25.59.48,1.18.69,1.79.32.91.59,1.84.81,2.79.47,2.01.72,4.11.72,6.26v14.93c0,5.85-2.37,11.14-6.2,14.97-3.83,3.83-9.12,6.2-14.97,6.2l21.18,21.18Z"/>
    </g>
  </g>
</svg>